<svg width="44" height="36" viewBox="0 0 44 36" fill="none" xmlns="http://www.w3.org/2000/svg">
<path d="M41.5479 24.3482H43.9521L40.8082 21.0895C36.3082 16.4166 30.0822 13.7727 23.5479 13.7727H22.8082H21.2055H20.4041C13.9315 13.7727 7.70548 16.4166 3.14384 21.0895L0 24.3482H2.40411C8.87671 24.3482 15.1027 21.7043 19.6644 17.0314L22.0069 14.6335C20.6507 22.8725 8.87671 35.9074 8.87671 35.9074H22.0685H35.2603C35.2603 35.9074 23.6096 23.057 22.1301 14.818L24.2877 17.0929C28.7877 21.7043 35.0137 24.3482 41.5479 24.3482Z" fill="white"/>
<path d="M20.0343 8.97685L21.9452 7.00933L23.8562 8.97685C27.5548 12.8504 32.7329 15.0024 38.0959 15.0024H40.0685L37.4795 12.2971C33.7808 8.42349 28.6027 6.2715 23.2397 6.2715H22.6233H21.2671H20.6507C15.2877 6.2715 10.1712 8.42349 6.41096 12.2971L3.82192 15.0639H5.79453C11.1575 15.0639 16.3356 12.8504 20.0343 8.97685Z" fill="white"/>
<path d="M20.4041 2.21347L21.9452 0.614853L23.4863 2.21347C26.5069 5.34922 30.6986 7.13229 35.0754 7.13229H36.6781L34.5822 4.91882C31.5617 1.78307 27.3699 0 22.9932 0H22.5H21.3904H20.8973C16.5206 0 12.3288 1.78307 9.30823 4.91882L7.21234 7.13229H8.81508C13.1918 7.13229 17.3836 5.34922 20.4041 2.21347Z" fill="white"/>
</svg>
